<svg width="32" height="32" viewBox="0 0 32 32" fill="none" xmlns="http://www.w3.org/2000/svg">
<path d="M21 29C21 29.5304 21.2107 30.0391 21.5858 30.4142C21.9609 30.7893 22.4696 31 23 31C23.5304 31 24.0391 30.7893 24.4142 30.4142C24.7893 30.0391 25 29.5304 25 29C25 28.4696 24.7893 27.9609 24.4142 27.5858C24.0391 27.2107 23.5304 27 23 27C22.4696 27 21.9609 27.2107 21.5858 27.5858C21.2107 27.9609 21 28.4696 21 29V29Z" stroke="#CF5B45" stroke-width="2" stroke-linecap="round" stroke-linejoin="round"/>
<path d="M5 29C5 29.5304 5.21071 30.0391 5.58579 30.4142C5.96086 30.7893 6.46957 31 7 31C7.53043 31 8.03914 30.7893 8.41421 30.4142C8.78929 30.0391 9 29.5304 9 29C9 28.4696 8.78929 27.9609 8.41421 27.5858C8.03914 27.2107 7.53043 27 7 27C6.46957 27 5.96086 27.2107 5.58579 27.5858C5.21071 27.9609 5 28.4696 5 29Z" stroke="#CF5B45" stroke-width="2" stroke-linecap="round" stroke-linejoin="round"/>
<path d="M21 29H9" stroke="#CF5B45" stroke-width="2" stroke-linecap="round" stroke-linejoin="round"/>
<path d="M5 29H3C2.46957 29 1.96086 28.7893 1.58579 28.4142C1.21071 28.0391 1 27.5304 1 27V24C1 22.9391 1.42143 21.9217 2.17157 21.1716C2.92172 20.4214 3.93913 20 5 20L7.44667 13.1053C7.61284 12.7731 7.86827 12.4937 8.18431 12.2985C8.50035 12.1032 8.86452 11.9999 9.236 12H19.7693C20.1408 11.9999 20.505 12.1032 20.821 12.2985C21.1371 12.4937 21.3925 12.7731 21.5587 13.1053L24 20H27C28.0609 20 29.0783 20.4214 29.8284 21.1716C30.5786 21.9217 31 22.9391 31 24V27C31 27.5304 30.7893 28.0391 30.4142 28.4142C30.0391 28.7893 29.5304 29 29 29H25" stroke="#CF5B45" stroke-width="2" stroke-linecap="round" stroke-linejoin="round"/>
<path d="M24 20H5" stroke="#CF5B45" stroke-width="2" stroke-linecap="round" stroke-linejoin="round"/>
<path d="M15 12V20" stroke="#CF5B45" stroke-width="2" stroke-linecap="round" stroke-linejoin="round"/>
<path d="M21 12L7 12V6L21 6V12Z" stroke="#CF5B45" stroke-width="2" stroke-linecap="round" stroke-linejoin="round"/>
<path d="M19 6L9 6V1L19 1V6Z" stroke="#CF5B45" stroke-width="2" stroke-linecap="round" stroke-linejoin="round"/>
<path d="M17 6V12" stroke="#CF5B45" stroke-width="2" stroke-linecap="round" stroke-linejoin="round"/>
<path d="M11 6V12" stroke="#CF5B45" stroke-width="2" stroke-linecap="round" stroke-linejoin="round"/>
</svg>
