<svg width="32" height="32" viewBox="0 0 32 32" fill="none" xmlns="http://www.w3.org/2000/svg">
<path d="M1 26C1 27.3261 1.52678 28.5979 2.46447 29.5355C3.40215 30.4732 4.67392 31 6 31C7.32608 31 8.59785 30.4732 9.53553 29.5355C10.4732 28.5979 11 27.3261 11 26C11 24.6739 10.4732 23.4021 9.53553 22.4645C8.59785 21.5268 7.32608 21 6 21C4.67392 21 3.40215 21.5268 2.46447 22.4645C1.52678 23.4021 1 24.6739 1 26Z" stroke="#CF5B45" stroke-width="2" stroke-linecap="round" stroke-linejoin="round"/>
<path d="M6 25.5C6.09889 25.5 6.19556 25.5293 6.27778 25.5843C6.36001 25.6392 6.4241 25.7173 6.46194 25.8087C6.49978 25.9 6.50969 26.0006 6.49039 26.0975C6.4711 26.1945 6.42348 26.2836 6.35355 26.3536C6.28363 26.4235 6.19454 26.4711 6.09754 26.4904C6.00055 26.5097 5.90002 26.4998 5.80866 26.4619C5.7173 26.4241 5.63921 26.36 5.58427 26.2778C5.52932 26.1956 5.5 26.0989 5.5 26C5.5 25.8674 5.55268 25.7402 5.64645 25.6464C5.74022 25.5527 5.86739 25.5 6 25.5Z" stroke="#CF5B45" stroke-width="2" stroke-linecap="round" stroke-linejoin="round"/>
<path d="M11 17H7C5.4087 17 3.88258 17.6321 2.75736 18.7574C1.63214 19.8826 1 21.4087 1 23V26C1 27.3261 1.52678 28.5979 2.46447 29.5355C3.40215 30.4732 4.67392 31 6 31H19C19.5304 31 20.0391 30.7893 20.4142 30.4142C20.7893 30.0391 21 29.5304 21 29V27C21 24.3478 19.9464 21.8043 18.0711 19.9289C16.1957 18.0536 13.6522 17 11 17Z" stroke="#CF5B45" stroke-width="2" stroke-linecap="round" stroke-linejoin="round"/>
<path d="M25 27H27C28.0609 27 29.0783 27.4214 29.8284 28.1716C30.5786 28.9217 31 29.9391 31 31H27C26.4696 31 25.9609 30.7893 25.5858 30.4142C25.2107 30.0391 25 29.5304 25 29V27Z" stroke="#CF5B45" stroke-width="2" stroke-linecap="round" stroke-linejoin="round"/>
<path d="M25 27V6C25 4.67392 24.4732 3.40215 23.5355 2.46447C22.5979 1.52678 21.3261 1 20 1C18.6739 1 17.4021 1.52678 16.4645 2.46447C15.5268 3.40215 15 4.67392 15 6C15 9 19 10 19 13C19 14.692 17.728 17.0187 16.6187 18.7333" stroke="#CF5B45" stroke-width="2" stroke-linecap="round" stroke-linejoin="round"/>
<path d="M15 23H20.1627" stroke="#CF5B45" stroke-width="2" stroke-linecap="round" stroke-linejoin="round"/>
</svg>
