<svg width="32" height="32" viewBox="0 0 32 32" fill="none" xmlns="http://www.w3.org/2000/svg">
<path d="M3 1H29V31H3V1Z" stroke="#CF5B45" stroke-width="2" stroke-linecap="round" stroke-linejoin="round"/>
<path d="M7 5H11" stroke="#CF5B45" stroke-width="2" stroke-linecap="round" stroke-linejoin="round"/>
<path d="M3 9H29" stroke="#CF5B45" stroke-width="2" stroke-linecap="round" stroke-linejoin="round"/>
<path d="M9 20C9 21.8565 9.7375 23.637 11.0503 24.9497C12.363 26.2625 14.1435 27 16 27C17.8565 27 19.637 26.2625 20.9497 24.9497C22.2625 23.637 23 21.8565 23 20C23 18.1435 22.2625 16.363 20.9497 15.0503C19.637 13.7375 17.8565 13 16 13C14.1435 13 12.363 13.7375 11.0503 15.0503C9.7375 16.363 9 18.1435 9 20V20Z" stroke="#CF5B45" stroke-width="2" stroke-linecap="round" stroke-linejoin="round"/>
<path d="M24 4.5C24.0989 4.5 24.1956 4.52932 24.2778 4.58427C24.36 4.63921 24.4241 4.7173 24.4619 4.80866C24.4998 4.90002 24.5097 5.00055 24.4904 5.09755C24.4711 5.19454 24.4235 5.28363 24.3536 5.35355C24.2836 5.42348 24.1945 5.4711 24.0975 5.49039C24.0006 5.50969 23.9 5.49978 23.8087 5.46194C23.7173 5.4241 23.6392 5.36001 23.5843 5.27778C23.5293 5.19556 23.5 5.09889 23.5 5C23.5 4.86739 23.5527 4.74021 23.6464 4.64645C23.7402 4.55268 23.8674 4.5 24 4.5Z" stroke="#CF5B45" stroke-width="2" stroke-linecap="round" stroke-linejoin="round"/>
<path d="M18 4.5C18.0989 4.5 18.1956 4.52932 18.2778 4.58427C18.36 4.63921 18.4241 4.7173 18.4619 4.80866C18.4998 4.90002 18.5097 5.00055 18.4904 5.09755C18.4711 5.19454 18.4235 5.28363 18.3536 5.35355C18.2836 5.42348 18.1945 5.4711 18.0975 5.49039C18.0006 5.50969 17.9 5.49978 17.8087 5.46194C17.7173 5.4241 17.6392 5.36001 17.5843 5.27778C17.5293 5.19556 17.5 5.09889 17.5 5C17.5 4.86739 17.5527 4.74021 17.6464 4.64645C17.7402 4.55268 17.8674 4.5 18 4.5" stroke="#CF5B45" stroke-width="2" stroke-linecap="round" stroke-linejoin="round"/>
<path d="M13 20C13 19.2044 13.3161 18.4413 13.8787 17.8787C14.4413 17.3161 15.2044 17 16 17" stroke="#CF5B45" stroke-width="2" stroke-linecap="round" stroke-linejoin="round"/>
</svg>
