<svg width="32" height="32" viewBox="0 0 32 32" fill="none" xmlns="http://www.w3.org/2000/svg">
<path d="M31 14V31H1V14" stroke="#CF5B45" stroke-width="2" stroke-linecap="round" stroke-linejoin="round"/>
<path d="M31 14H22C22 12.4087 21.3679 10.8826 20.2426 9.75736C19.1174 8.63214 17.5913 8 16 8C14.4087 8 12.8826 8.63214 11.7574 9.75736C10.6321 10.8826 10 12.4087 10 14H1L4.56533 2.412C4.69111 2.0031 4.94469 1.6453 5.28882 1.39116C5.63296 1.13701 6.04952 0.999917 6.47733 1H25.5227C25.9505 0.999917 26.367 1.13701 26.7112 1.39116C27.0553 1.6453 27.3089 2.0031 27.4347 2.412L31 14Z" stroke="#CF5B45" stroke-width="2" stroke-linecap="round" stroke-linejoin="round"/>
<path d="M18 18H14V13.5C14 12.6667 14.896 12 16 12C17.104 12 18 12.6667 18 13.5V18Z" stroke="#CF5B45" stroke-width="2" stroke-linecap="round" stroke-linejoin="round"/>
<path d="M18 31H14V24C14 23.4696 14.2107 22.9609 14.5858 22.5858C14.9609 22.2107 15.4696 22 16 22C16.5304 22 17.0391 22.2107 17.4142 22.5858C17.7893 22.9609 18 23.4696 18 24V31Z" stroke="#CF5B45" stroke-width="2" stroke-linecap="round" stroke-linejoin="round"/>
<path d="M5 18H9" stroke="#CF5B45" stroke-width="2" stroke-linecap="round" stroke-linejoin="round"/>
<path d="M23 18H27" stroke="#CF5B45" stroke-width="2" stroke-linecap="round" stroke-linejoin="round"/>
<path d="M5 22H9V26H5V22Z" stroke="#CF5B45" stroke-width="2" stroke-linecap="round" stroke-linejoin="round"/>
<path d="M23 22H27V26H23V22Z" stroke="#CF5B45" stroke-width="2" stroke-linecap="round" stroke-linejoin="round"/>
</svg>
