<svg width="32" height="32" viewBox="0 0 32 32" fill="none" xmlns="http://www.w3.org/2000/svg">
<g clip-path="url(#clip0)">
<path d="M15 23.0003L10.7334 18.555C10.36 18.1801 10.1141 17.6973 10.0303 17.175C9.94658 16.6526 10.0293 16.1171 10.2667 15.6443C10.4452 15.2869 10.7062 14.9771 11.028 14.7404C11.3498 14.5037 11.7233 14.3469 12.1177 14.283C12.512 14.219 12.9159 14.2498 13.2961 14.3726C13.6762 14.4955 14.0217 14.707 14.304 14.9896L15 15.6856L15.696 14.9896C15.9783 14.707 16.3238 14.4955 16.704 14.3726C17.0841 14.2498 17.488 14.219 17.8824 14.283C18.2767 14.3469 18.6502 14.5037 18.972 14.7404C19.2939 14.9771 19.5548 15.2869 19.7334 15.6443V15.6443C19.9701 16.1176 20.0519 16.6534 19.9672 17.1758C19.8825 17.6982 19.6355 18.1807 19.2614 18.555L15 23.0003Z" stroke="#CF5B45" stroke-width="2" stroke-linecap="round" stroke-linejoin="round"/>
<path d="M3 12V30" stroke="#CF5B45" stroke-width="2" stroke-linecap="round" stroke-linejoin="round"/>
<path d="M26.9961 20.0003H30.0001C30.2648 20.0003 30.5188 19.8953 30.7063 19.7083C30.8937 19.5214 30.9994 19.2677 31.0001 19.0029C31.0108 13.8949 31.0374 7.72561 28.9214 2.61761C28.8329 2.40379 28.673 2.22728 28.469 2.11816C28.2649 2.00904 28.0293 1.97407 27.8024 2.01921C27.5754 2.06435 27.3711 2.18681 27.2243 2.36571C27.0776 2.5446 26.9974 2.76887 26.9974 3.00028V30.0003" stroke="#CF5B45" stroke-width="2" stroke-linecap="round" stroke-linejoin="round"/>
<path d="M1 2V10C1 10.5304 1.21071 11.0391 1.58579 11.4142C1.96086 11.7893 2.46957 12 3 12C3.53043 12 4.03914 11.7893 4.41421 11.4142C4.78929 11.0391 5 10.5304 5 10V2" stroke="#CF5B45" stroke-width="2" stroke-linecap="round" stroke-linejoin="round"/>
<path d="M22 11.4202C21.1047 10.4594 20.0211 9.69318 18.8169 9.16927C17.6126 8.64537 16.3133 8.375 15 8.375C13.6867 8.375 12.3874 8.64537 11.1832 9.16927C9.97886 9.69318 8.89532 10.4594 8 11.4202" stroke="#CF5B45" stroke-width="2" stroke-linecap="round" stroke-linejoin="round"/>
<path d="M8 24.5801C8.89532 25.5409 9.97886 26.3071 11.1832 26.831C12.3874 27.3549 13.6867 27.6253 15 27.6253C16.3133 27.6253 17.6126 27.3549 18.8169 26.831C20.0211 26.3071 21.1047 25.5409 22 24.5801" stroke="#CF5B45" stroke-width="2" stroke-linecap="round" stroke-linejoin="round"/>
</g>
<defs>
<clipPath id="clip0">
<rect width="32" height="32" fill="white"/>
</clipPath>
</defs>
</svg>
