<svg width="32" height="32" viewBox="0 0 32 32" fill="none" xmlns="http://www.w3.org/2000/svg">
<path d="M21.0001 19.9998L18.7694 18.3264C18.5418 18.1559 18.2819 18.0336 18.0054 17.967C17.729 17.9003 17.4419 17.8907 17.1616 17.9388C16.8813 17.9868 16.6138 18.0915 16.3753 18.2464C16.1369 18.4013 15.9325 18.6032 15.7747 18.8398V18.8398C15.5453 19.1831 15.4229 19.5868 15.4229 19.9998C15.4229 20.4127 15.5453 20.8164 15.7747 21.1598L17.9667 24.4491C18.64 25.459 19.6038 26.241 20.7307 26.6918L24.0001 27.9998V30.9998" stroke="#CF5B45" stroke-width="2" stroke-linecap="round" stroke-linejoin="round"/>
<path d="M20 13L24.8 15.0547C26.2159 15.6619 27.3441 16.7905 27.9507 18.2067L29.5147 21.8667C29.8355 22.6135 30.0006 23.4179 30 24.2307V31" stroke="#CF5B45" stroke-width="2" stroke-linecap="round" stroke-linejoin="round"/>
<path d="M20 19.2507V10C20 9.20435 19.6839 8.44129 19.1213 7.87868C18.5587 7.31607 17.7956 7 17 7H9C8.20446 7.00035 7.4416 7.31654 6.87907 7.87907C6.31654 8.4416 6.00035 9.20446 6 10V28C6 28.7957 6.31607 29.5587 6.87868 30.1213C7.44129 30.6839 8.20435 31 9 31H17C17.7956 31 18.5587 30.6839 19.1213 30.1213C19.6839 29.5587 20 28.7957 20 28V26.34" stroke="#CF5B45" stroke-width="2" stroke-linecap="round" stroke-linejoin="round"/>
<path d="M18.3813 25H6" stroke="#CF5B45" stroke-width="2" stroke-linecap="round" stroke-linejoin="round"/>
<path d="M2 8C2.00035 6.14359 2.73796 4.36332 4.05064 3.05064C5.36332 1.73796 7.14359 1.00035 9 1" stroke="#CF5B45" stroke-width="2" stroke-linecap="round" stroke-linejoin="round"/>
<path d="M24 8C24 6.14348 23.2625 4.36301 21.9497 3.05025C20.637 1.7375 18.8565 1 17 1" stroke="#CF5B45" stroke-width="2" stroke-linecap="round" stroke-linejoin="round"/>
</svg>
