<svg width="32" height="32" viewBox="0 0 32 32" fill="none" xmlns="http://www.w3.org/2000/svg">
<path d="M12 25C12 26.0609 12.4214 27.0783 13.1716 27.8284C13.9217 28.5786 14.9391 29 16 29C17.0609 29 18.0783 28.5786 18.8284 27.8284C19.5786 27.0783 20 26.0609 20 25C20 23.9391 19.5786 22.9217 18.8284 22.1716C18.0783 21.4214 17.0609 21 16 21C14.9391 21 13.9217 21.4214 13.1716 22.1716C12.4214 22.9217 12 23.9391 12 25Z" stroke="#CF5B45" stroke-width="2" stroke-linecap="round" stroke-linejoin="round"/>
<path d="M23.0666 17.929C21.1913 16.0539 18.6479 15.0005 15.996 15.0005C13.344 15.0005 10.8006 16.0539 8.92529 17.929" stroke="#CF5B45" stroke-width="2" stroke-linecap="round" stroke-linejoin="round"/>
<path d="M27.3133 13.6864C24.3128 10.6861 20.2433 9.00049 16 9.00049C11.7567 9.00049 7.6872 10.6861 4.68665 13.6864" stroke="#CF5B45" stroke-width="2" stroke-linecap="round" stroke-linejoin="round"/>
<path d="M31 8.90799C26.9274 5.11215 21.5672 3.00146 16 3.00146C10.4328 3.00146 5.07255 5.11215 1 8.90799" stroke="#CF5B45" stroke-width="2" stroke-linecap="round" stroke-linejoin="round"/>
</svg>
