<svg width="32" height="32" viewBox="0 0 32 32" fill="none" xmlns="http://www.w3.org/2000/svg">
<path d="M17.6667 15.3335V19.3335H9.66675V15.3335" stroke="#CF5B45" stroke-width="2" stroke-linecap="round" stroke-linejoin="round"/>
<path d="M7.66675 12.3335L13.6667 7.3335L19.6667 12.3335" stroke="#CF5B45" stroke-width="2" stroke-linecap="round" stroke-linejoin="round"/>
<path d="M1.66675 13.3333C1.66675 16.5159 2.93103 19.5681 5.18147 21.8185C7.4319 24.069 10.4842 25.3333 13.6667 25.3333C16.8493 25.3333 19.9016 24.069 22.152 21.8185C24.4025 19.5681 25.6667 16.5159 25.6667 13.3333C25.6667 10.1507 24.4025 7.09841 22.152 4.84797C19.9016 2.59753 16.8493 1.33325 13.6667 1.33325C10.4842 1.33325 7.4319 2.59753 5.18147 4.84797C2.93103 7.09841 1.66675 10.1507 1.66675 13.3333V13.3333Z" stroke="#CF5B45" stroke-width="2" stroke-linecap="round" stroke-linejoin="round"/>
<path d="M30.6667 30.3335L22.1667 21.8335" stroke="#CF5B45" stroke-width="2" stroke-linecap="round" stroke-linejoin="round"/>
</svg>
