<svg width="32" height="32" viewBox="0 0 32 32" fill="none" xmlns="http://www.w3.org/2000/svg">
<g clip-path="url(#clip0)">
<path d="M23.7974 15.0748C23.9245 14.8681 23.9942 14.6313 23.9993 14.3887C24.0044 14.1462 23.9447 13.9066 23.8263 13.6948C23.708 13.483 23.5353 13.3066 23.3261 13.1838C23.1168 13.061 22.8786 12.9962 22.636 12.9961H18V0.996094L8.20269 16.9188C8.07546 17.1253 8.00568 17.3621 8.00055 17.6046C7.99542 17.8471 8.05512 18.0866 8.17349 18.2984C8.29187 18.5101 8.46462 18.6864 8.67391 18.8091C8.8832 18.9317 9.12144 18.9963 9.36402 18.9961H14V30.9961L23.7974 15.0748Z" stroke="#CF5B45" stroke-width="2" stroke-linecap="round" stroke-linejoin="round"/>
</g>
<defs>
<clipPath id="clip0">
<rect width="32" height="32" fill="white"/>
</clipPath>
</defs>
</svg>
