<svg width="32" height="32" viewBox="0 0 32 32" fill="none" xmlns="http://www.w3.org/2000/svg">
<path d="M22 29.9998H25C25.5304 29.9998 26.0391 29.789 26.4142 29.414C26.7893 29.0389 27 28.5302 27 27.9998V17.9998" stroke="#CF5B45" stroke-width="2" stroke-linecap="round" stroke-linejoin="round"/>
<path d="M5 17.9998V27.9998C5 28.5302 5.21071 29.0389 5.58579 29.414C5.96086 29.789 6.46957 29.9998 7 29.9998H10" stroke="#CF5B45" stroke-width="2" stroke-linecap="round" stroke-linejoin="round"/>
<path d="M1 16.1719L14.5853 2.58526C14.7711 2.39941 14.9916 2.25198 15.2343 2.15139C15.4771 2.0508 15.7372 1.99902 16 1.99902C16.2628 1.99902 16.5229 2.0508 16.7657 2.15139C17.0084 2.25198 17.2289 2.39941 17.4147 2.58526L31 16.1719" stroke="#CF5B45" stroke-width="2" stroke-linecap="round" stroke-linejoin="round"/>
<path d="M22 7.17176V3.99976H27V12.1718" stroke="#CF5B45" stroke-width="2" stroke-linecap="round" stroke-linejoin="round"/>
<path d="M13 12.9998C13 13.7954 13.3161 14.5585 13.8787 15.1211C14.4413 15.6837 15.2044 15.9998 16 15.9998C16.7956 15.9998 17.5587 15.6837 18.1213 15.1211C18.6839 14.5585 19 13.7954 19 12.9998C19 12.2041 18.6839 11.441 18.1213 10.8784C17.5587 10.3158 16.7956 9.99976 16 9.99976C15.2044 9.99976 14.4413 10.3158 13.8787 10.8784C13.3161 11.441 13 12.2041 13 12.9998V12.9998Z" stroke="#CF5B45" stroke-width="2" stroke-linecap="round" stroke-linejoin="round"/>
<path d="M16 17.9998C14.6739 17.9998 13.4021 18.5265 12.4645 19.4642C11.5268 20.4019 11 21.6737 11 22.9998V23.9998H13L14 29.9998H18L19 23.9998H21V22.9998C21 21.6737 20.4732 20.4019 19.5355 19.4642C18.5979 18.5265 17.3261 17.9998 16 17.9998Z" stroke="#CF5B45" stroke-width="2" stroke-linecap="round" stroke-linejoin="round"/>
</svg>
